<svg width="1920" height="1080" viewBox="0 0 1920 1080" fill="none" xmlns="http://www.w3.org/2000/svg">
<rect width="1920" height="1080" fill="#7B00FF"/>
<path d="M513.732 355C523.778 355 531.684 357.838 537.299 363.639C543.135 369.435 546 377.397 546 387.391C546 397.118 543.723 407.817 539.208 419.476L539.206 419.481C534.69 430.92 528.373 442.344 520.264 453.755C512.149 465.173 502.572 475.804 491.536 485.646C480.488 495.5 468.423 503.677 455.342 510.173C442.405 516.597 428.804 520.616 414.545 522.229C411.221 529.273 407.042 538.122 402.008 548.775L402.004 548.783C397.011 559.133 391.076 569.788 384.205 580.75C403.252 585.182 421.233 591.106 438.146 598.523H438.147C455.686 606.117 471.105 614.722 484.396 624.344L484.399 624.346C497.916 634.191 508.536 644.619 516.233 655.638L516.239 655.646C523.947 666.903 527.845 678.117 527.845 689.271C527.845 699.24 525.333 707.696 520.253 714.576C515.2 721.42 509.328 725 502.638 725C501.46 725 500.429 724.884 499.572 724.622C498.74 724.368 498.017 723.957 497.516 723.326C496.698 722.493 496.259 721.48 496.259 720.327V719.479L497.096 719.34C500.747 718.735 504.466 715.982 508.212 710.729L508.218 710.722L508.224 710.713C511.895 705.779 513.741 699.982 513.741 693.277C513.741 682.606 510.238 672.231 503.17 662.136L502.497 661.21C495.459 651.669 485.696 642.821 473.179 634.675C460.259 626.267 445.094 619.065 427.675 613.076L427.668 613.074L427.66 613.071C410.641 606.924 391.968 602.404 371.639 599.515C364.065 610.064 355.511 619.747 345.972 628.561C336.483 637.757 325.86 645.052 314.106 650.44C302.537 656.07 289.954 658.88 276.371 658.88C262.113 658.88 251.082 655.622 243.438 648.949C235.862 642.337 232 634.618 232 625.822C232 617.744 235.257 609.738 241.635 601.819L241.637 601.816C248.277 593.629 258.191 586.976 271.297 581.813C284.677 576.409 301.511 573.729 321.759 573.729C337.058 573.73 352.573 575.032 368.303 577.636C373.754 568.067 378.67 558.5 383.048 548.935C387.3 539.642 391.043 530.853 394.282 522.571C372.691 521.596 355.532 518.266 342.863 512.526L342.856 512.523L342.851 512.521C329.958 506.455 320.699 498.883 315.188 489.759C309.725 480.716 306.975 471.411 306.975 461.858C306.975 449.845 310.629 438.522 317.902 427.907C325.173 417.075 335.05 408.287 347.507 401.538C359.993 394.773 373.943 391.399 389.336 391.399C390.348 391.399 391.271 391.587 392.033 392.041C392.816 392.507 393.353 393.21 393.646 394.085C394.111 395.471 394.371 396.699 394.371 397.742V398.742H393.371C385.011 398.742 376.864 400.597 368.925 404.319L368.926 404.32C361.19 408.052 354.224 413.102 348.027 419.478L348.015 419.49C341.822 425.641 336.848 432.555 333.089 440.235L333.09 440.236C329.561 447.903 327.802 455.776 327.802 463.862C327.802 471.688 329.878 479.424 334.062 487.081L334.457 487.767C338.641 494.815 345.618 500.809 355.488 505.711C365.483 510.675 379.541 513.438 397.737 513.935C399.634 509.086 401.224 504.65 402.504 500.626L402.514 500.597C404.08 496.153 405.423 492.372 406.543 489.257C411.927 473.215 417.647 457.284 423.704 441.465L423.708 441.453H423.709C430.003 425.601 437.087 411.19 444.964 398.225L444.971 398.214C453.101 385.204 462.715 374.75 473.818 366.872L474.872 366.141C485.826 358.702 498.794 355 513.732 355ZM321.759 596.1C303.438 596.1 288.42 597.987 276.674 601.729L276.666 601.732L276.658 601.734C264.856 605.273 256.169 609.778 250.501 615.191L250.5 615.192C245.005 620.432 242.405 625.531 242.405 630.497C242.405 635.467 244.998 639.856 250.494 643.657L251.035 644.022L251.045 644.03L251.056 644.037C256.873 648.103 265.27 650.201 276.371 650.201C292.723 650.201 307.522 644.94 320.8 634.39L320.809 634.383C333.752 624.312 345.344 612.056 355.584 597.608C344.309 596.603 333.034 596.1 321.759 596.1ZM513.732 374.031C504.42 374.031 495.583 378.108 487.205 386.43L487.195 386.439C478.766 394.591 470.64 405.525 462.828 419.269L462.829 419.27C455.226 432.818 447.732 447.928 440.346 464.601C433.196 480.739 426.045 496.773 418.896 512.704C431.326 510.828 442.94 506.945 453.745 501.053C465.097 494.862 475.446 487.347 484.795 478.505C494.16 469.425 502.181 459.797 508.862 449.622C515.551 439.435 520.669 429.485 524.225 419.772C527.784 409.828 529.543 401.043 529.543 393.401C529.543 387.301 528.226 382.642 525.711 379.311L525.693 379.287C523.239 375.834 519.329 374.031 513.732 374.031Z" fill="url(#paint0_linear_1457_69)" stroke="url(#paint1_linear_1457_69)" stroke-width="2"/>
<path d="M675.906 601H615.636V500.2H630.266V587.21H675.906V601ZM723.63 489.7H737.84L727.83 514.2H718.38L723.63 489.7ZM699.27 567.33C699.877 574.377 702 579.813 705.64 583.64C709.28 587.42 714.274 589.31 720.62 589.31C725.147 589.31 729.09 588.283 732.45 586.23C735.81 584.177 738.424 581.19 740.29 577.27L754.64 581.82C751.747 588.493 747.314 593.72 741.34 597.5C735.367 601.233 728.694 603.1 721.32 603.1C713.854 603.1 707.274 601.467 701.58 598.2C695.887 594.887 691.454 590.267 688.28 584.34C685.154 578.367 683.59 571.53 683.59 563.83C683.59 555.663 685.13 548.523 688.21 542.41C691.29 536.297 695.63 531.583 701.23 528.27C706.83 524.957 713.294 523.3 720.62 523.3C727.854 523.3 734.107 524.91 739.38 528.13C744.654 531.35 748.69 535.97 751.49 541.99C754.337 547.963 755.76 555.033 755.76 563.2C755.76 564.087 755.714 565.463 755.62 567.33H699.27ZM721.18 536.25C714.974 536.25 710.05 537.93 706.41 541.29C702.817 544.603 700.554 549.48 699.62 555.92H740.64C739.847 549.247 737.84 544.3 734.62 541.08C731.447 537.86 726.967 536.25 721.18 536.25ZM804.155 603.1C796.735 603.1 790.225 601.42 784.625 598.06C779.025 594.653 774.709 589.94 771.675 583.92C768.642 577.853 767.125 570.923 767.125 563.13C767.125 555.29 768.665 548.36 771.745 542.34C774.825 536.32 779.165 531.653 784.765 528.34C790.365 524.98 796.829 523.3 804.155 523.3C811.575 523.3 818.085 524.98 823.685 528.34C829.332 531.7 833.672 536.413 836.705 542.48C839.739 548.5 841.255 555.383 841.255 563.13C841.255 570.97 839.715 577.923 836.635 583.99C833.602 590.01 829.285 594.7 823.685 598.06C818.085 601.42 811.575 603.1 804.155 603.1ZM804.155 589.31C811.155 589.31 816.499 586.953 820.185 582.24C823.872 577.48 825.715 571.11 825.715 563.13C825.715 555.057 823.872 548.71 820.185 544.09C816.499 539.423 811.155 537.09 804.155 537.09C797.062 537.09 791.695 539.423 788.055 544.09C784.462 548.757 782.665 555.103 782.665 563.13C782.665 571.25 784.509 577.643 788.195 582.31C791.882 586.977 797.202 589.31 804.155 589.31ZM926.735 603.1C916.842 603.1 908.302 600.907 901.115 596.52C893.929 592.133 888.445 585.997 884.665 578.11C880.932 570.177 879.065 561.007 879.065 550.6C879.065 540.193 880.932 531.047 884.665 523.16C888.445 515.227 893.929 509.067 901.115 504.68C908.302 500.293 916.842 498.1 926.735 498.1C934.342 498.1 941.155 499.43 947.175 502.09C953.242 504.703 958.305 508.46 962.365 513.36C966.472 518.213 969.529 523.977 971.535 530.65L956.695 534.64C954.642 527.453 951.095 521.9 946.055 517.98C941.015 514.013 934.575 512.03 926.735 512.03C919.689 512.03 913.762 513.64 908.955 516.86C904.149 520.08 900.532 524.607 898.105 530.44C895.725 536.273 894.535 543.133 894.535 551.02C894.535 558.72 895.749 565.44 898.175 571.18C900.602 576.873 904.219 581.307 909.025 584.48C913.879 587.607 919.782 589.17 926.735 589.17C934.575 589.17 941.015 587.21 946.055 583.29C951.095 579.323 954.642 573.747 956.695 566.56L971.535 570.55C969.529 577.223 966.472 583.01 962.365 587.91C958.305 592.763 953.242 596.52 947.175 599.18C941.155 601.793 934.342 603.1 926.735 603.1ZM1019.76 603.1C1012.34 603.1 1005.83 601.42 1000.23 598.06C994.631 594.653 990.314 589.94 987.281 583.92C984.248 577.853 982.731 570.923 982.731 563.13C982.731 555.29 984.271 548.36 987.351 542.34C990.431 536.32 994.771 531.653 1000.37 528.34C1005.97 524.98 1012.43 523.3 1019.76 523.3C1027.18 523.3 1033.69 524.98 1039.29 528.34C1044.94 531.7 1049.28 536.413 1052.31 542.48C1055.34 548.5 1056.86 555.383 1056.86 563.13C1056.86 570.97 1055.32 577.923 1052.24 583.99C1049.21 590.01 1044.89 594.7 1039.29 598.06C1033.69 601.42 1027.18 603.1 1019.76 603.1ZM1019.76 589.31C1026.76 589.31 1032.1 586.953 1035.79 582.24C1039.48 577.48 1041.32 571.11 1041.32 563.13C1041.32 555.057 1039.48 548.71 1035.79 544.09C1032.1 539.423 1026.76 537.09 1019.76 537.09C1012.67 537.09 1007.3 539.423 1003.66 544.09C1000.07 548.757 998.271 555.103 998.271 563.13C998.271 571.25 1000.11 577.643 1003.8 582.31C1007.49 586.977 1012.81 589.31 1019.76 589.31ZM1092.26 529.67C1094.36 528.083 1096.79 526.893 1099.54 526.1C1102.3 525.307 1105.1 524.91 1107.94 524.91C1109.48 524.91 1111.19 525.073 1113.05 525.4V539.12C1111.47 538.653 1109.62 538.42 1107.52 538.42C1105.56 538.42 1103.63 538.677 1101.71 539.19C1099.85 539.657 1098.12 540.403 1096.53 541.43C1090.19 545.49 1087.01 552.63 1087.01 562.85V601H1072.24V525.4H1085.26V537.44C1087.13 534.127 1089.46 531.537 1092.26 529.67ZM1161.59 523.3C1168.55 523.3 1174.61 525.027 1179.79 528.48C1185.02 531.887 1189.03 536.623 1191.83 542.69C1194.68 548.71 1196.1 555.523 1196.1 563.13C1196.1 570.69 1194.7 577.503 1191.9 583.57C1189.1 589.637 1185.11 594.42 1179.93 597.92C1174.75 601.373 1168.73 603.1 1161.87 603.1C1153.57 603.1 1146.61 600.627 1141.01 595.68V634.6H1126.31V525.4H1139.33V532.19C1142.09 529.343 1145.33 527.15 1149.06 525.61C1152.8 524.07 1156.97 523.3 1161.59 523.3ZM1159.84 589.87C1164.37 589.87 1168.17 588.703 1171.25 586.37C1174.38 584.037 1176.71 580.863 1178.25 576.85C1179.79 572.837 1180.56 568.263 1180.56 563.13C1180.56 558.043 1179.79 553.493 1178.25 549.48C1176.71 545.467 1174.36 542.317 1171.18 540.03C1168.01 537.697 1164.07 536.53 1159.35 536.53C1152.68 536.53 1147.66 538.933 1144.3 543.74C1140.99 548.5 1139.33 554.963 1139.33 563.13C1139.33 571.39 1141.01 577.923 1144.37 582.73C1147.78 587.49 1152.94 589.87 1159.84 589.87ZM1244.39 603.1C1236.97 603.1 1230.46 601.42 1224.86 598.06C1219.26 594.653 1214.94 589.94 1211.91 583.92C1208.88 577.853 1207.36 570.923 1207.36 563.13C1207.36 555.29 1208.9 548.36 1211.98 542.34C1215.06 536.32 1219.4 531.653 1225 528.34C1230.6 524.98 1237.06 523.3 1244.39 523.3C1251.81 523.3 1258.32 524.98 1263.92 528.34C1269.57 531.7 1273.91 536.413 1276.94 542.48C1279.97 548.5 1281.49 555.383 1281.49 563.13C1281.49 570.97 1279.95 577.923 1276.87 583.99C1273.84 590.01 1269.52 594.7 1263.92 598.06C1258.32 601.42 1251.81 603.1 1244.39 603.1ZM1244.39 589.31C1251.39 589.31 1256.73 586.953 1260.42 582.24C1264.11 577.48 1265.95 571.11 1265.95 563.13C1265.95 555.057 1264.11 548.71 1260.42 544.09C1256.73 539.423 1251.39 537.09 1244.39 537.09C1237.3 537.09 1231.93 539.423 1228.29 544.09C1224.7 548.757 1222.9 555.103 1222.9 563.13C1222.9 571.25 1224.74 577.643 1228.43 582.31C1232.12 586.977 1237.44 589.31 1244.39 589.31ZM1316.89 529.67C1318.99 528.083 1321.42 526.893 1324.17 526.1C1326.93 525.307 1329.73 524.91 1332.57 524.91C1334.11 524.91 1335.82 525.073 1337.68 525.4V539.12C1336.1 538.653 1334.25 538.42 1332.15 538.42C1330.19 538.42 1328.26 538.677 1326.34 539.19C1324.48 539.657 1322.75 540.403 1321.16 541.43C1314.82 545.49 1311.64 552.63 1311.64 562.85V601H1296.87V525.4H1309.89V537.44C1311.76 534.127 1314.09 531.537 1316.89 529.67ZM1407.83 537.72C1408.91 540.007 1409.61 542.457 1409.93 545.07C1410.31 547.637 1410.49 550.763 1410.49 554.45V601H1397.54V590.01C1394.42 594.443 1390.61 597.733 1386.13 599.88C1381.7 602.027 1376.43 603.1 1370.31 603.1C1364.9 603.1 1360.28 602.097 1356.45 600.09C1352.63 598.037 1349.71 595.307 1347.7 591.9C1345.74 588.447 1344.76 584.62 1344.76 580.42C1344.76 569.267 1350.71 561.8 1362.61 558.02C1366.21 556.947 1370.27 556.037 1374.79 555.29C1379.37 554.497 1385.69 553.54 1393.76 552.42L1396.07 552.14C1395.84 546.82 1394.39 542.947 1391.73 540.52C1389.07 538.047 1384.83 536.81 1378.99 536.81C1374.75 536.81 1371.01 537.79 1367.79 539.75C1364.57 541.71 1362.36 544.697 1361.14 548.71L1347.49 544.51C1349.36 537.837 1352.95 532.633 1358.27 528.9C1363.64 525.167 1370.59 523.3 1379.13 523.3C1386.09 523.3 1392.04 524.49 1396.98 526.87C1401.93 529.25 1405.55 532.867 1407.83 537.72ZM1372.9 591.13C1376.87 591.13 1380.37 590.43 1383.4 589.03C1386.44 587.583 1388.86 585.717 1390.68 583.43C1392.55 581.143 1393.79 578.717 1394.39 576.15C1395.33 573.443 1395.84 569.5 1395.93 564.32L1394.11 564.6C1387.3 565.58 1382.19 566.373 1378.78 566.98C1375.42 567.587 1372.39 568.287 1369.68 569.08C1366.42 570.2 1363.85 571.647 1361.98 573.42C1360.16 575.193 1359.25 577.48 1359.25 580.28C1359.25 583.407 1360.4 585.997 1362.68 588.05C1365.02 590.103 1368.42 591.13 1372.9 591.13ZM1449.46 537.16V570.55V574.54C1449.46 576.92 1449.55 578.857 1449.74 580.35C1449.93 581.797 1450.35 583.057 1451 584.13C1452.12 585.997 1453.68 587.35 1455.69 588.19C1457.74 588.983 1460.24 589.38 1463.18 589.38C1465.7 589.38 1468.62 589.123 1471.93 588.61V601C1467.59 601.84 1463.6 602.26 1459.96 602.26C1454.73 602.26 1450.16 601.42 1446.24 599.74C1442.37 598.06 1439.47 595.423 1437.56 591.83C1436.39 589.637 1435.62 587.397 1435.25 585.11C1434.92 582.777 1434.76 579.953 1434.76 576.64V571.25V537.16H1420.27V525.4H1434.76V504.4H1449.46V525.4H1471.93V537.16H1449.46ZM1503.9 601H1489.27V525.4H1503.9V601ZM1496.62 515.04C1494.01 515.04 1491.81 514.153 1490.04 512.38C1488.31 510.607 1487.45 508.46 1487.45 505.94C1487.45 503.373 1488.31 501.227 1490.04 499.5C1491.81 497.727 1494.01 496.84 1496.62 496.84C1499.23 496.84 1501.4 497.727 1503.13 499.5C1504.86 501.227 1505.72 503.373 1505.72 505.94C1505.72 508.507 1504.86 510.677 1503.13 512.45C1501.4 514.177 1499.23 515.04 1496.62 515.04ZM1557.75 603.1C1550.33 603.1 1543.82 601.42 1538.22 598.06C1532.62 594.653 1528.3 589.94 1525.27 583.92C1522.24 577.853 1520.72 570.923 1520.72 563.13C1520.72 555.29 1522.26 548.36 1525.34 542.34C1528.42 536.32 1532.76 531.653 1538.36 528.34C1543.96 524.98 1550.42 523.3 1557.75 523.3C1565.17 523.3 1571.68 524.98 1577.28 528.34C1582.93 531.7 1587.27 536.413 1590.3 542.48C1593.33 548.5 1594.85 555.383 1594.85 563.13C1594.85 570.97 1593.31 577.923 1590.23 583.99C1587.2 590.01 1582.88 594.7 1577.28 598.06C1571.68 601.42 1565.17 603.1 1557.75 603.1ZM1557.75 589.31C1564.75 589.31 1570.09 586.953 1573.78 582.24C1577.47 577.48 1579.31 571.11 1579.31 563.13C1579.31 555.057 1577.47 548.71 1573.78 544.09C1570.09 539.423 1564.75 537.09 1557.75 537.09C1550.66 537.09 1545.29 539.423 1541.65 544.09C1538.06 548.757 1536.26 555.103 1536.26 563.13C1536.26 571.25 1538.1 577.643 1541.79 582.31C1545.48 586.977 1550.8 589.31 1557.75 589.31ZM1648.24 523.37C1656.17 523.37 1662.36 525.377 1666.79 529.39C1671.27 533.357 1674.28 538 1675.82 543.32C1677.36 548.64 1678.13 553.867 1678.13 559V601H1663.29V563.83C1663.29 556.41 1661.91 550.133 1659.16 545C1656.41 539.82 1651.41 537.23 1644.18 537.23C1638.44 537.23 1633.8 539.19 1630.25 543.11C1626.75 547.03 1625 553.213 1625 561.66V601H1610.16V525.4H1623.25V534.43C1626.1 530.883 1629.62 528.153 1633.82 526.24C1638.02 524.327 1642.83 523.37 1648.24 523.37Z" fill="#FFF7D9"/>
<defs>
<linearGradient id="paint0_linear_1457_69" x1="389" y1="356" x2="532.5" y2="760" gradientUnits="userSpaceOnUse">
<stop stop-color="#FFF7D9"/>
<stop offset="1" stop-color="#D699FF"/>
</linearGradient>
<linearGradient id="paint1_linear_1457_69" x1="389" y1="356" x2="545" y2="747" gradientUnits="userSpaceOnUse">
<stop stop-color="#FFF7D9"/>
<stop offset="1" stop-color="#D699FF"/>
</linearGradient>
</defs>
</svg>
